<svg xmlns="http://www.w3.org/2000/svg" xmlns:xlink="http://www.w3.org/1999/xlink" viewBox="0,0,256,256" width="48px" height="48px" fill-rule="nonzero"><defs><linearGradient x1="10.341" y1="8.312" x2="40.798" y2="38.769" gradientUnits="userSpaceOnUse" id="color-1"><stop offset="0" stop-color="#ffffff"></stop><stop offset="1" stop-color="#007ad9"></stop></linearGradient></defs><g fill="url(#color-1)" fill-rule="nonzero" stroke="none" stroke-width="1" stroke-linecap="butt" stroke-linejoin="miter" stroke-miterlimit="10" stroke-dasharray="" stroke-dashoffset="0" font-family="none" font-weight="none" font-size="none" text-anchor="none" style="mix-blend-mode: normal"><g transform="scale(5.33333,5.33333)"><path d="M46.105,11.02c-1.551,0.687 -3.219,1.145 -4.979,1.362c1.789,-1.062 3.166,-2.756 3.812,-4.758c-1.674,0.981 -3.529,1.702 -5.502,2.082c-1.576,-1.67 -3.824,-2.706 -6.314,-2.706c-4.783,0 -8.661,3.843 -8.661,8.582c0,0.671 0.079,1.324 0.226,1.958c-7.196,-0.361 -13.579,-3.782 -17.849,-8.974c-0.75,1.269 -1.172,2.754 -1.172,4.322c0,2.979 1.525,5.602 3.851,7.147c-1.42,-0.043 -2.756,-0.438 -3.926,-1.072c0,0.026 0,0.064 0,0.101c0,4.163 2.986,7.63 6.944,8.419c-0.723,0.198 -1.488,0.308 -2.276,0.308c-0.559,0 -1.104,-0.063 -1.632,-0.158c1.102,3.402 4.299,5.889 8.087,5.963c-2.964,2.298 -6.697,3.674 -10.756,3.674c-0.701,0 -1.387,-0.04 -2.065,-0.122c3.837,2.429 8.39,3.852 13.278,3.852c15.927,0 24.641,-13.079 24.641,-24.426c0,-0.372 -0.012,-0.742 -0.029,-1.108c1.7,-1.201 3.165,-2.715 4.322,-4.446"></path></g></g></svg>